<svg height="92pt" viewBox="0 0 78 78" width="92pt" xmlns="http://www.w3.org/2000/svg"><path d="m5 58c-2.76142 0-5-2.23858-5-5v-48c0-2.76142 2.23858-5 5-5h33v12.54404c-2.06553.94801-3.5 3.03446-3.5 5.45596 0 .73514.13221 1.43941.37415 2.09031l-15.28384 15.28384c-.6509-.24194-1.35517-.37415-2.09031-.37415-3.31371 0-6 2.68629-6 6s2.68629 6 6 6 6-2.68629 6-6c0-.73514-.13221-1.43941-.37415-2.09031l14.87415-14.87415v11.50851c-2.06553.94801-3.5 3.03446-3.5 5.45596 0 3.31371 2.68629 6 6 6s6-2.68629 6-6c0-2.42149-1.43447-4.50795-3.5-5.45596v-12.08808c2.06553-.94801 3.5-3.03446 3.5-5.45596 0-2.42149-1.43447-4.50795-3.5-5.45596v-12.54404h10c2.76142 0 5 2.23858 5 5v48c0 2.76142-2.23858 5-5 5z" fill="#1e1e1f" transform="matrix(.70710678 -.70710678 .70710678 .70710678 -2.012193 39)"/></svg>