<svg viewBox="0 0 512 512" xmlns="http://www.w3.org/2000/svg"><path d="m355.26451 205.09406c-1.9459 0-3.58354.0505-4.50471.15292-1.0753 1.94589-2.66237 4.55649-5.01768 8.19182 36.65424 0 69.93088 3.02 106.73805 9.62355l-10.39179 10.03416c-33.22485-5.88708-60.81788-8.24118-95.98743-8.24118-5.11883 0-6.19413 0-7.42237.0505-1.22944 1.84235-3.99415 5.42589-6.75768 8.75416 3.12236-.20471 9.16357-.30705 17.50711-.30705 28.92483 0 55.95434 2.14939 85.28858 6.86002l-10.393 10.08474c-22.32009-3.4812-49.60607-5.47767-74.07677-5.47767-8.70237 0-18.58239.30706-27.43891.81882-1.99648 2.30353-7.21765 7.93534-8.80472 9.67533 11.72237-1.22824 24.62362-1.79177 39.98131-1.79177 21.8601 0 42.74725 1.43413 62.50732 4.35178l-10.39301 9.98239c-14.07768-1.74-31.17659-2.76352-46.27781-2.76352-38.95778 0-69.67438 8.44589-101.41452 27.84832 30.25541 32.4566 79.81091 52.98491 127.82991 52.98491h4.50473l-16.79065 16.23071c-69.26497-13.00474-142.16408-43.46486-203.74901-85.18857-59.23083-39.98132-79.963838-51.80604-126.191065-72.23201l-.307058-11.87772 31.278941 13.41301 10.648275-8.44709 102.129787 46.79076-6.65533 5.32355-52.42137-22.78007-5.1706 4.04352 27.23541 15.20478c22.98598 12.79888 40.49308 18.53184 56.67081 18.53184 35.37425 0 67.11437-25.08481 87.59091-69.16143 15.40947-1.99769 31.84248-2.91887 51.60254-2.91887 40.54486 0 79.91206 3.89061 124.50166 12.23536l-10.853 10.49414c-27.74597-5.78473-74.89557-10.49414-104.99686-10.49414m-99.26392 291.54462c-132.86324 0-240.639278-107.77603-240.639278-240.63928s107.776038-240.640495 240.639278-240.640495c132.86326 0 240.63929 107.777245 240.63929 240.640495s-107.77603 240.63928-240.63929 240.63928m0-496.63868c-141.56682 0-256.00059 114.43137-256.00059 255.9994s114.43377 256.0006 256.00059 256.0006c141.56804 0 256.00061-114.43257 256.00061-256.0006s-114.43257-255.9994-256.00061-255.9994m253.92532 490.42449 10.58474-187.5415"/></svg>