<svg height="80" viewBox="8 8 80 80" width="80" xmlns="http://www.w3.org/2000/svg"><path d="m0-2.0000003v96.0000003h.08007812v-95.9199216h95.91406188v-.080079zm95.99414.080079v95.9199213h-95.91406188v.08008h95.99999988v-96.0000016zm-46.185547 15.0039063c-.04813.0072-.08785.06233-.111328.142577-1.0052 3.901067-6.359366 9.711442-7.437499 10.984376-9.083333 10.798933-7.003931 17.376345 2.480469 23.580078.119733.07547.264159-.01096.193359-.154298-5.882267-12.565599 5.884114-20.682072 7.800781-22.441406.2708-.246933.203785-.476478.208985-.757812 0-3.957199-2.2671-10.358723-3.009767-11.27539-.04556-.06108-.08757-.08376-.125-.07813zm9.591798 6.017577c-.04854.0013-.09569.04164-.117188.08789-1.4708 3.230266-3.856103 6.303197-5.595703 7.716797-2.461467 1.982266-11.88614 8.966898-7.066406 20.207031.0552.138.197135.105302.230469-.0098 2.7792-13.328666 13.626855-13.655461 14.597655-16.183594 1.5136-3.943734-1.256577-10.945437-1.964843-11.773437-.0254-.03325-.05486-.04573-.08398-.04492zm-24.458985 1.583985c-.05382.0023-.09034.05172-.09766.136719-.0552 1.677066-1.962945 5.878264-4.882812 10.716797-3.104133 5.151066-3.112639 16.327138 12.298828 16.763671.145866.0052.188702-.145536.04297-.230469-9.838533-5.8724-8.855477-14.256454-4.777344-20.419921.08853-.128133.117976-.34375.08984-.59375-.171867-1.464534-1.770834-5.173242-2.4375-6.181642-.0913-.135574-.175332-.194025-.236328-.191405zm32.595703 5.919921c-.04566.0054-.09505.05957-.128905.158204-.520934 1.25-2.803387 5.715202-9.13672 8.427735-5.656267 2.4276-9.058657 7.932458-9.650391 12.880858-.02813.121333.07682.1875.160156.1875 17.564667.635467 18.807088-15.371727 18.876955-21.361327.0049-.205914-.05435-.300834-.121095-.29297zm-28.615234 23.623048v4.031249h13.853516v-4.031249zm2.853516 5.955078 2.902344 26.59375c.111467.67448 1.568531 1.004173 1.894531 0l3.355469-26.59375z" fill="#fff" stroke-width=".133333"/></svg>